<svg width="306" height="56" viewBox="0 0 306 56" xmlns="http://www.w3.org/2000/svg">
    <g id="cloud">
        <g transform="translate(-22, -18)">
            <path d="M26.789 26.421C24.697 26.421 23 28.118 23 30.211C23 32.304 24.697 34 26.789 34H37.21C39.303 34 41 32.303 41 30.211C41 28.119 39.303 26.422 37.211 26.422C37.211 23.544 34.878 21.211 32 21.211C29.122 21.211 26.789 23.543 26.789 26.421Z"/>
        </g>
    </g>
    <g id="delete">
        <g transform="translate(-62, -18)">
            <path d="M75.5429 37.0038H68.4571C67.2809 37.0038 66.303 36.0982 66.2128 34.9255L65.2472 22.3727H78.7528L77.7872 34.9255C77.697 36.0982 76.7191 37.0038 75.5429 37.0038V37.0038Z"/>
            <path d="M80.0033 22.3726H63.9966"/>
            <path d="M69.1863 18.9962H74.8137C75.4352 18.9962 75.9391 19.5001 75.9391 20.1217V22.3726H68.0609V20.1217C68.0609 19.8232 68.1794 19.5369 68.3905 19.3259C68.6016 19.1148 68.8878 18.9962 69.1863 18.9962Z"/>
            <path d="M69.9991 33.0021H74.0008"/>
        </g>
    </g>
    <g id="pin">
        <g transform="translate(-102, -18)">
            <path d="M112.3 26.6474C112.462 26.8101 112.462 27.0734 112.3 27.2358C112.137 27.3981 111.874 27.3981 111.711 27.2358C111.549 27.0734 111.549 26.8101 111.711 26.6474C111.789 26.5692 111.895 26.5252 112.006 26.5252C112.116 26.5252 112.222 26.5692 112.3 26.6474"/>
            <path d="M115.92 26.8425V26.8425C115.92 27.9073 115.447 28.9171 114.629 29.5987L113.345 30.6691C112.832 31.0962 112.449 31.6573 112.238 32.2898L112 33.0021L111.763 32.2898C111.552 31.6574 111.168 31.0963 110.656 30.6691L109.371 29.6007C108.553 28.9196 108.08 27.91 108.08 26.8455V26.8455V26.8655C108.078 25.8299 108.492 24.8368 109.229 24.1094C109.966 23.3821 110.965 22.9815 112 22.9979C113.035 22.9815 114.033 23.3817 114.77 24.1084C115.507 24.8351 115.921 25.8275 115.92 26.8625"/>
            <path d="M117.002 37.0037H106.998C104.788 37.0037 102.996 35.2121 102.996 33.002V22.9979C102.996 20.7878 104.788 18.9962 106.998 18.9962H117.002C119.212 18.9962 121.004 20.7878 121.004 22.9979V33.002C121.004 35.2121 119.212 37.0037 117.002 37.0037Z"/>
        </g>
    </g>
    <g id="preview">
        <g transform="translate(-142, -18)">
            <path d="M143.118 28.467C142.961 28.176 142.961 27.823 143.118 27.532C145.01 24.033 148.505 21 152 21C155.495 21 158.99 24.033 160.882 27.533C161.039 27.824 161.039 28.177 160.882 28.468C158.99 31.967 155.495 35 152 35C148.505 35 145.01 31.967 143.118 28.467Z"/>
            <path d="M154.121 25.8787C155.293 27.0502 155.293 28.9497 154.121 30.1213C152.95 31.2929 151.05 31.2929 149.879 30.1213C148.707 28.9497 148.707 27.0502 149.879 25.8787C151.05 24.7071 152.95 24.7071 154.121 25.8787"/>
        </g>
    </g>
    <g id="search">
        <g transform="translate(-182, -18)">
            <circle cx="191.059" cy="27.0586" r="7.06194"/>
            <path d="M200.003 36.0033L196.052 32.0517"/>
        </g>
    </g>
    <g id="settings">
        <g transform="translate(-222, -18)">
            <path d="M229.667 36.0033H234.332C236.065 36.0033 237.667 35.0791 238.534 33.5783L240.353 30.426C241.221 28.9249 241.221 27.075 240.353 25.574L238.533 22.4217C237.666 20.9213 236.065 19.9971 234.332 19.9966H229.668C227.935 19.9963 226.333 20.9207 225.466 22.4217L223.647 25.575C222.779 27.0753 222.779 28.9247 223.647 30.425L225.466 33.5773C226.333 35.0783 227.934 36.0031 229.667 36.0033Z"/>
            <ellipse cx="232" cy="28" rx="3.47145" ry="3.3694"/>
        </g>
    </g>
    <g id="rewind">
        <g transform="translate(-262, -18)">
            <path d="M265 27H270.061C270.829 27 271.597 26.707 272.182 26.121C273.354 24.949 273.354 23.05 272.182 21.878C271.01 20.706 269.111 20.706 267.939 21.878"/>
            <path d="M263 31H271.665C272.305 31 272.945 31.244 273.433 31.732C274.409 32.708 274.409 34.291 273.433 35.268C272.457 36.245 270.874 36.244 269.897 35.268"/>
            <path d="M275 29H278.657C279.257 29 279.856 28.771 280.314 28.314C281.229 27.399 281.229 25.915 280.314 25C279.399 24.085 277.915 24.085 277 25"/>
        </g>
    </g>
</svg>
